<svg width="64" height="64" viewBox="0 0 64 64" fill="none" xmlns="http://www.w3.org/2000/svg">
  <defs>
    <linearGradient id="primaryGrad" x1="0%" y1="0%" x2="100%" y2="100%">
      <stop offset="0%" stop-color="#3b82f6"/>
      <stop offset="100%" stop-color="#8b5cf6"/>
    </linearGradient>
    <linearGradient id="accentGrad" x1="0%" y1="0%" x2="100%" y2="100%">
      <stop offset="0%" stop-color="#06b6d4"/>
      <stop offset="100%" stop-color="#3b82f6"/>
    </linearGradient>
    <filter id="glow" x="-20%" y="-20%" width="140%" height="140%">
      <feGaussianBlur stdDeviation="2" result="coloredBlur"/>
      <feMerge> 
        <feMergeNode in="coloredBlur"/>
        <feMergeNode in="SourceGraphic"/>
      </feMerge>
    </filter>
  </defs>
  
  <!-- Background circle -->
  <circle cx="32" cy="32" r="28" fill="url(#primaryGrad)" filter="url(#glow)" opacity="0.9"/>
  
  <!-- Chart bars representing data analysis -->
  <rect x="14" y="36" width="4" height="16" rx="2" fill="white" opacity="0.9"/>
  <rect x="20" y="28" width="4" height="24" rx="2" fill="white" opacity="0.7"/>
  <rect x="26" y="32" width="4" height="20" rx="2" fill="white" opacity="0.9"/>
  <rect x="32" y="22" width="4" height="30" rx="2" fill="white"/>
  <rect x="38" y="30" width="4" height="22" rx="2" fill="white" opacity="0.9"/>
  <rect x="44" y="34" width="4" height="18" rx="2" fill="white" opacity="0.7"/>
  
  <!-- Connecting line representing trend analysis -->
  <path d="M16 42 L22 34 L28 38 L34 28 L40 36 L46 40" stroke="url(#accentGrad)" stroke-width="2.5" fill="none" stroke-linecap="round" opacity="0.8"/>
  
  <!-- Data points -->
  <circle cx="16" cy="42" r="2.5" fill="white"/>
  <circle cx="22" cy="34" r="2.5" fill="white"/>
  <circle cx="28" cy="38" r="2.5" fill="white"/>
  <circle cx="34" cy="28" r="2.5" fill="white"/>
  <circle cx="40" cy="36" r="2.5" fill="white"/>
  <circle cx="46" cy="40" r="2.5" fill="white"/>
  
  <!-- Log file icon in top right -->
  <rect x="44" y="12" width="8" height="10" rx="1" fill="white" opacity="0.3"/>
  <rect x="46" y="14" width="4" height="1" rx="0.5" fill="white" opacity="0.6"/>
  <rect x="46" y="16" width="3" height="1" rx="0.5" fill="white" opacity="0.5"/>
  <rect x="46" y="18" width="4" height="1" rx="0.5" fill="white" opacity="0.6"/>
</svg>